<svg width="32" height="32" viewBox="0 0 32 32" fill="none" xmlns="http://www.w3.org/2000/svg">
<rect width="32" height="32" rx="16" fill="white"/>
<path d="M23.7917 12.8808L19.7917 9.17995C19.5243 8.92914 19.1025 8.94283 18.8497 9.20649C18.5962 9.47015 18.6084 9.88612 18.8766 10.1354L21.6572 12.7257H17.1183C15.9861 12.6507 14.9361 13.1109 14.1389 13.8889C13.3333 14.6778 12.8889 15.7325 12.8889 16.8638V19.2498C12.8889 19.6128 13.1875 19.8826 13.5556 19.8826C13.9236 19.8826 14.2222 19.6388 14.2222 19.2745V16.8638C14.2222 16.0867 14.5261 15.3616 15.0772 14.823C15.6194 14.2943 16.3028 13.9875 17.1111 14.0149H21.6556L18.875 16.6052C18.6068 16.8544 18.5947 17.2704 18.8481 17.5342C18.9792 17.6465 19.1553 17.7405 19.3325 17.7405C19.4966 17.7405 19.6614 17.6814 19.79 17.5607L23.79 13.8598C23.925 13.7108 24 13.5383 24 13.3575C24 13.1767 23.925 13.0041 23.7917 12.8808ZM18 19.4936C17.6319 19.4936 17.3333 19.7881 17.3333 20.1264V21.4167C17.3333 21.5373 17.2335 21.6111 17.1111 21.6111H9.55556C9.43317 21.6111 9.33333 21.5127 9.33333 21.4167V14.0149C9.33333 13.8942 9.43317 13.8204 9.55556 13.8204H11.1111C11.4792 13.8204 11.7778 13.5259 11.7778 13.1876C11.7778 12.8493 11.4792 12.5548 11.1111 12.5548H9.55556C8.69778 12.5548 8 13.243 8 14.0642V21.4906C8 22.3124 8.69806 23 9.55556 23H17.1111C17.9689 23 18.6667 22.3119 18.6667 21.4906V20.2004C18.6667 19.7895 18.3694 19.4936 18 19.4936Z" fill="#888888"/>
</svg>
